<svg width="14" height="18" viewBox="0 0 14 18" fill="none" xmlns="http://www.w3.org/2000/svg">
<path d="M13.4453 7.86719C13.4453 7.78125 13.375 7.71094 13.2891 7.71094H12.1172C12.0312 7.71094 11.9609 7.78125 11.9609 7.86719C11.9609 10.6074 9.74023 12.8281 7 12.8281C4.25977 12.8281 2.03906 10.6074 2.03906 7.86719C2.03906 7.78125 1.96875 7.71094 1.88281 7.71094H0.710938C0.625 7.71094 0.554688 7.78125 0.554688 7.86719C0.554688 11.1621 3.02734 13.8809 6.21875 14.2656V16.2656H3.38086C3.11328 16.2656 2.89844 16.5449 2.89844 16.8906V17.5938C2.89844 17.6797 2.95313 17.75 3.01953 17.75H10.9805C11.0469 17.75 11.1016 17.6797 11.1016 17.5938V16.8906C11.1016 16.5449 10.8867 16.2656 10.6191 16.2656H7.70312V14.2754C10.9316 13.9238 13.4453 11.1895 13.4453 7.86719ZM7 11.1875C8.83398 11.1875 10.3203 9.71875 10.3203 7.90625V3.53125C10.3203 1.71875 8.83398 0.25 7 0.25C5.16602 0.25 3.67969 1.71875 3.67969 3.53125V7.90625C3.67969 9.71875 5.16602 11.1875 7 11.1875ZM5.16406 3.53125C5.16406 2.54297 5.98242 1.73438 7 1.73438C8.01758 1.73438 8.83594 2.54297 8.83594 3.53125V7.90625C8.83594 8.89453 8.01758 9.70312 7 9.70312C5.98242 9.70312 5.16406 8.89453 5.16406 7.90625V3.53125Z" fill="#A5A5A5"/>
</svg>
