<svg width="20" height="14" viewBox="0 0 20 14" fill="none" xmlns="http://www.w3.org/2000/svg">
<path fill-rule="evenodd" clip-rule="evenodd" d="M3.33375 1.375C2.5275 1.375 1.875 2.0275 1.875 2.83375V11.1663C1.875 11.9725 2.5275 12.625 3.33375 12.625H11.6663C12.4725 12.625 13.125 11.9725 13.125 11.1663V2.83375C13.125 2.0275 12.4725 1.375 11.6663 1.375H3.33375ZM0.625 2.83375C0.625 1.3375 1.8375 0.125 3.33375 0.125H11.6663C13.1625 0.125 14.375 1.3375 14.375 2.83375V11.1663C14.375 12.6625 13.1625 13.875 11.6663 13.875H3.33375C2.61534 13.875 1.92636 13.5896 1.41837 13.0816C0.910385 12.5736 0.625 11.8847 0.625 11.1663V2.83375Z" fill="#A5A5A5"/>
<path fill-rule="evenodd" clip-rule="evenodd" d="M14.0623 4.0625L17.5223 2.05625C17.5817 2.02042 17.6495 2.00079 17.7189 1.9993C17.7883 1.99781 17.8569 2.01452 17.9179 2.04777C17.9788 2.08102 18.03 2.12965 18.0663 2.18881C18.1026 2.24798 18.1227 2.31562 18.1248 2.385V11.615C18.1248 11.9 17.7998 12.1063 17.5223 11.945L14.0635 9.93875L13.436 11.02L16.8948 13.0263C17.9685 13.6488 19.3748 12.9075 19.3748 11.615V2.385C19.3748 1.09375 17.9685 0.352502 16.8948 0.975002L13.4373 2.98125L14.0648 4.0625H14.0623Z" fill="#A5A5A5"/>
</svg>
